<svg width="24" height="25" viewBox="0 0 24 25" fill="none" xmlns="http://www.w3.org/2000/svg">
<g id="Icon=apps, hover=yes, Selected=no">
<mask id="mask0_287_4976" style="mask-type:alpha" maskUnits="userSpaceOnUse" x="0" y="0" width="24" height="25">
<rect id="Bounding box" y="0.380951" width="24" height="24" fill="#FFF"/>
</mask>
<g mask="url(#mask0_287_4976)">
<path id="apps" d="M5.5 21.381C4.8 21.381 4.20833 21.1393 3.725 20.656C3.24167 20.1726 3 19.581 3 18.881C3 18.181 3.24167 17.5893 3.725 17.106C4.20833 16.6226 4.8 16.381 5.5 16.381C6.2 16.381 6.79167 16.6226 7.275 17.106C7.75833 17.5893 8 18.181 8 18.881C8 19.581 7.75833 20.1726 7.275 20.656C6.79167 21.1393 6.2 21.381 5.5 21.381ZM12 21.381C11.3 21.381 10.7083 21.1393 10.225 20.656C9.74167 20.1726 9.5 19.581 9.5 18.881C9.5 18.181 9.74167 17.5893 10.225 17.106C10.7083 16.6226 11.3 16.381 12 16.381C12.7 16.381 13.2917 16.6226 13.775 17.106C14.2583 17.5893 14.5 18.181 14.5 18.881C14.5 19.581 14.2583 20.1726 13.775 20.656C13.2917 21.1393 12.7 21.381 12 21.381ZM18.5 21.381C17.8 21.381 17.2083 21.1393 16.725 20.656C16.2417 20.1726 16 19.581 16 18.881C16 18.181 16.2417 17.5893 16.725 17.106C17.2083 16.6226 17.8 16.381 18.5 16.381C19.2 16.381 19.7917 16.6226 20.275 17.106C20.7583 17.5893 21 18.181 21 18.881C21 19.581 20.7583 20.1726 20.275 20.656C19.7917 21.1393 19.2 21.381 18.5 21.381ZM5.5 14.881C4.8 14.881 4.20833 14.6393 3.725 14.156C3.24167 13.6726 3 13.081 3 12.381C3 11.681 3.24167 11.0893 3.725 10.606C4.20833 10.1226 4.8 9.88095 5.5 9.88095C6.2 9.88095 6.79167 10.1226 7.275 10.606C7.75833 11.0893 8 11.681 8 12.381C8 13.081 7.75833 13.6726 7.275 14.156C6.79167 14.6393 6.2 14.881 5.5 14.881ZM12 14.881C11.3 14.881 10.7083 14.6393 10.225 14.156C9.74167 13.6726 9.5 13.081 9.5 12.381C9.5 11.681 9.74167 11.0893 10.225 10.606C10.7083 10.1226 11.3 9.88095 12 9.88095C12.7 9.88095 13.2917 10.1226 13.775 10.606C14.2583 11.0893 14.5 11.681 14.5 12.381C14.5 13.081 14.2583 13.6726 13.775 14.156C13.2917 14.6393 12.7 14.881 12 14.881ZM18.5 14.881C17.8 14.881 17.2083 14.6393 16.725 14.156C16.2417 13.6726 16 13.081 16 12.381C16 11.681 16.2417 11.0893 16.725 10.606C17.2083 10.1226 17.8 9.88095 18.5 9.88095C19.2 9.88095 19.7917 10.1226 20.275 10.606C20.7583 11.0893 21 11.681 21 12.381C21 13.081 20.7583 13.6726 20.275 14.156C19.7917 14.6393 19.2 14.881 18.5 14.881ZM5.5 8.38095C4.8 8.38095 4.20833 8.13928 3.725 7.65595C3.24167 7.17262 3 6.58095 3 5.88095C3 5.18095 3.24167 4.58928 3.725 4.10595C4.20833 3.62262 4.8 3.38095 5.5 3.38095C6.2 3.38095 6.79167 3.62262 7.275 4.10595C7.75833 4.58928 8 5.18095 8 5.88095C8 6.58095 7.75833 7.17262 7.275 7.65595C6.79167 8.13928 6.2 8.38095 5.5 8.38095ZM12 8.38095C11.3 8.38095 10.7083 8.13928 10.225 7.65595C9.74167 7.17262 9.5 6.58095 9.5 5.88095C9.5 5.18095 9.74167 4.58928 10.225 4.10595C10.7083 3.62262 11.3 3.38095 12 3.38095C12.7 3.38095 13.2917 3.62262 13.775 4.10595C14.2583 4.58928 14.5 5.18095 14.5 5.88095C14.5 6.58095 14.2583 7.17262 13.775 7.65595C13.2917 8.13928 12.7 8.38095 12 8.38095ZM18.5 8.38095C17.8 8.38095 17.2083 8.13928 16.725 7.65595C16.2417 7.17262 16 6.58095 16 5.88095C16 5.18095 16.2417 4.58928 16.725 4.10595C17.2083 3.62262 17.8 3.38095 18.5 3.38095C19.2 3.38095 19.7917 3.62262 20.275 4.10595C20.7583 4.58928 21 5.18095 21 5.88095C21 6.58095 20.7583 7.17262 20.275 7.65595C19.7917 8.13928 19.2 8.38095 18.5 8.38095Z" fill="#FFFFFF"/>
</g>
</g>
</svg>
