<svg width="24" height="25" viewBox="0 0 24 25" fill="none"
    xmlns="http://www.w3.org/2000/svg">
    <mask id="mask0_908_1580" style="mask-type:alpha" maskUnits="userSpaceOnUse" x="0" y="0" width="24" height="25">
        <rect y="0.380981" width="24" height="24" fill="#D9D9D9"/>
    </mask>
    <g mask="url(#mask0_908_1580)">
        <path d="M11.9996 22.406C11.7329 22.406 11.4788 22.356 11.2371 22.256C10.9954 22.156 10.7746 22.0143 10.5746 21.831L2.54961 13.806C2.36628 13.606 2.22461 13.3852 2.12461 13.1435C2.02461 12.9018 1.97461 12.6477 1.97461 12.381C1.97461 12.1143 2.02461 11.856 2.12461 11.606C2.22461 11.356 2.36628 11.1393 2.54961 10.956L10.5746 2.93099C10.7746 2.73099 10.9954 2.58515 11.2371 2.49349C11.4788 2.40182 11.7329 2.35599 11.9996 2.35599C12.2663 2.35599 12.5246 2.40182 12.7746 2.49349C13.0246 2.58515 13.2413 2.73099 13.4246 2.93099L21.4496 10.956C21.6496 11.1393 21.7954 11.356 21.8871 11.606C21.9788 11.856 22.0246 12.1143 22.0246 12.381C22.0246 12.6477 21.9788 12.9018 21.8871 13.1435C21.7954 13.3852 21.6496 13.606 21.4496 13.806L13.4246 21.831C13.2413 22.0143 13.0246 22.156 12.7746 22.256C12.5246 22.356 12.2663 22.406 11.9996 22.406ZM11.9996 20.406L20.0246 12.381L11.9996 4.35599L3.97461 12.381L11.9996 20.406ZM10.9996 13.381H12.9996V7.38099H10.9996V13.381ZM11.9996 16.381C12.2829 16.381 12.5204 16.2852 12.7121 16.0935C12.9038 15.9018 12.9996 15.6643 12.9996 15.381C12.9996 15.0977 12.9038 14.8602 12.7121 14.6685C12.5204 14.4768 12.2829 14.381 11.9996 14.381C11.7163 14.381 11.4788 14.4768 11.2871 14.6685C11.0954 14.8602 10.9996 15.0977 10.9996 15.381C10.9996 15.6643 11.0954 15.9018 11.2871 16.0935C11.4788 16.2852 11.7163 16.381 11.9996 16.381Z" fill="#000"/>
    </g>
</svg>
