<svg width="24" height="25" viewBox="0 0 24 25" fill="none"
    xmlns="http://www.w3.org/2000/svg">
    <mask id="mask0_777_6626" style="mask-type:alpha" maskUnits="userSpaceOnUse" x="0" y="0" width="24" height="25">
        <rect y="0.380981" width="24" height="24" fill="#D9D9D9"/>
    </mask>
    <g mask="url(#mask0_777_6626)">
        <path d="M12 17.381C12.2833 17.381 12.5208 17.2851 12.7125 17.0935C12.9042 16.9018 13 16.6643 13 16.381C13 16.0976 12.9042 15.8601 12.7125 15.6685C12.5208 15.4768 12.2833 15.381 12 15.381C11.7167 15.381 11.4792 15.4768 11.2875 15.6685C11.0958 15.8601 11 16.0976 11 16.381C11 16.6643 11.0958 16.9018 11.2875 17.0935C11.4792 17.2851 11.7167 17.381 12 17.381ZM11 13.381H13V7.38098H11V13.381ZM12 22.381C10.6167 22.381 9.31667 22.1185 8.1 21.5935C6.88333 21.0685 5.825 20.356 4.925 19.456C4.025 18.556 3.3125 17.4976 2.7875 16.281C2.2625 15.0643 2 13.7643 2 12.381C2 10.9976 2.2625 9.69765 2.7875 8.48098C3.3125 7.26431 4.025 6.20598 4.925 5.30598C5.825 4.40598 6.88333 3.69348 8.1 3.16848C9.31667 2.64348 10.6167 2.38098 12 2.38098C13.3833 2.38098 14.6833 2.64348 15.9 3.16848C17.1167 3.69348 18.175 4.40598 19.075 5.30598C19.975 6.20598 20.6875 7.26431 21.2125 8.48098C21.7375 9.69765 22 10.9976 22 12.381C22 13.7643 21.7375 15.0643 21.2125 16.281C20.6875 17.4976 19.975 18.556 19.075 19.456C18.175 20.356 17.1167 21.0685 15.9 21.5935C14.6833 22.1185 13.3833 22.381 12 22.381ZM12 20.381C14.2333 20.381 16.125 19.606 17.675 18.056C19.225 16.506 20 14.6143 20 12.381C20 10.1476 19.225 8.25598 17.675 6.70598C16.125 5.15598 14.2333 4.38098 12 4.38098C9.76667 4.38098 7.875 5.15598 6.325 6.70598C4.775 8.25598 4 10.1476 4 12.381C4 14.6143 4.775 16.506 6.325 18.056C7.875 19.606 9.76667 20.381 12 20.381Z" fill="#fff"/>
    </g>
</svg>
