<svg width="24" height="25" viewBox="0 0 24 25" fill="none" xmlns="http://www.w3.org/2000/svg">
<g id="Icon=quick_reference_all, hover=no, Selected=no">
<mask id="mask0_379_4832" style="mask-type:alpha" maskUnits="userSpaceOnUse" x="0" y="0" width="24" height="25">
<rect id="Bounding box" y="0.380951" width="24" height="24" fill="#D9D9D9"/>
</mask>
<g mask="url(#mask0_379_4832)">
<path id="quick_reference_all" d="M5 4.38095V10.406V10.381V20.381V4.38095ZM7 14.381H10.5C10.65 13.9976 10.8333 13.6393 11.05 13.306C11.2667 12.9726 11.5167 12.6643 11.8 12.381H7V14.381ZM7 18.381H10.175C10.0917 18.0476 10.0375 17.7143 10.0125 17.381C9.9875 17.0476 9.99167 16.7143 10.025 16.381H7V18.381ZM5 22.381C4.45 22.381 3.97917 22.1851 3.5875 21.7935C3.19583 21.4018 3 20.931 3 20.381V4.38095C3 3.83095 3.19583 3.36012 3.5875 2.96845C3.97917 2.57678 4.45 2.38095 5 2.38095H13L19 8.38095V10.881C18.6833 10.7476 18.3583 10.6435 18.025 10.5685C17.6917 10.4935 17.35 10.4393 17 10.406V9.38095H12V4.38095H5V20.381H11.025C11.2917 20.781 11.5917 21.1518 11.925 21.4935C12.2583 21.8351 12.625 22.131 13.025 22.381H5ZM16.5 19.381C17.2 19.381 17.7917 19.1393 18.275 18.656C18.7583 18.1726 19 17.581 19 16.881C19 16.181 18.7583 15.5893 18.275 15.106C17.7917 14.6226 17.2 14.381 16.5 14.381C15.8 14.381 15.2083 14.6226 14.725 15.106C14.2417 15.5893 14 16.181 14 16.881C14 17.581 14.2417 18.1726 14.725 18.656C15.2083 19.1393 15.8 19.381 16.5 19.381ZM21.6 23.381L18.9 20.681C18.55 20.9143 18.1708 21.0893 17.7625 21.206C17.3542 21.3226 16.9333 21.381 16.5 21.381C15.25 21.381 14.1875 20.9435 13.3125 20.0685C12.4375 19.1935 12 18.131 12 16.881C12 15.631 12.4375 14.5685 13.3125 13.6935C14.1875 12.8185 15.25 12.381 16.5 12.381C17.75 12.381 18.8125 12.8185 19.6875 13.6935C20.5625 14.5685 21 15.631 21 16.881C21 17.3143 20.9417 17.7351 20.825 18.1435C20.7083 18.5518 20.5333 18.931 20.3 19.281L23 21.981L21.6 23.381Z" fill="#59565F"/>
</g>
</g>
</svg>
